<?xml version="1.0" standalone="no"?>
<!DOCTYPE svg PUBLIC "-//W3C//DTD SVG 20010904//EN"
 "http://www.w3.org/TR/2001/REC-SVG-20010904/DTD/svg10.dtd">
<svg version="1.0" xmlns="http://www.w3.org/2000/svg"
 width="123.000000pt" height="123.000000pt" viewBox="0 0 123.000000 123.000000"
 preserveAspectRatio="xMidYMid meet">
<metadata>
Created by potrace 1.11, written by Peter Selinger 2001-2013
</metadata>
<g transform="translate(0.000000,123.000000) scale(0.100000,-0.100000)"
fill="#000000" stroke="none">
<path d="M353 1209 c-24 -12 -48 -34 -59 -54 -10 -19 -24 -35 -30 -35 -6 0
-31 -18 -56 -40 -124 -109 -125 -328 -2 -501 39 -54 51 -100 59 -234 10 -170
29 -246 70 -285 55 -52 99 5 110 142 8 105 20 140 60 180 62 62 133 58 161 -9
18 -41 21 -135 10 -260 -7 -76 -6 -82 15 -96 40 -28 99 -3 134 58 30 51 60
141 80 241 20 93 40 134 95 194 85 93 122 189 115 299 -5 77 -29 137 -74 191
-21 25 -46 62 -56 83 -52 111 -206 122 -255 19 -12 -24 -22 -32 -45 -33 -86
-4 -113 6 -130 48 -38 91 -125 130 -202 92z"/>
</g>
</svg>
